<svg xmlns="http://www.w3.org/2000/svg" viewBox="0 0 512 512">
  <defs>
    <linearGradient id="bg" x1="0%" y1="0%" x2="100%" y2="100%">
      <stop offset="0%" stop-color="#f97316" />
      <stop offset="100%" stop-color="#fb923c" />
    </linearGradient>
  </defs>
  <rect width="512" height="512" rx="120" fill="#0f172a" />
  <rect x="36" y="36" width="440" height="440" rx="104" fill="url(#bg)" opacity="0.16" />
  <g fill="#f8fafc">
    <path d="M122 198c8-58 59-98 134-98 76 0 126 40 134 98H122z" />
    <rect x="108" y="214" width="296" height="28" rx="14" />
    <rect x="94" y="254" width="324" height="50" rx="25" fill="#22c55e" />
    <rect x="110" y="316" width="292" height="34" rx="17" fill="#7c2d12" />
    <path d="M122 366h268c-10 34-46 58-88 58H210c-42 0-78-24-88-58z" />
  </g>
  <g fill="#fef08a">
    <circle cx="180" cy="154" r="8" />
    <circle cx="220" cy="144" r="8" />
    <circle cx="260" cy="150" r="8" />
    <circle cx="300" cy="140" r="8" />
    <circle cx="340" cy="154" r="8" />
  </g>
</svg>
